<svg id="Logo_Patas" data-name="Logo Patas" xmlns="http://www.w3.org/2000/svg" width="146.288" height="77.097" viewBox="0 0 146.288 77.097">
  <path id="Path_1068" data-name="Path 1068" d="M1373.737,794.625a8.284,8.284,0,0,0,.734-1.717,3.707,3.707,0,0,0-.74-3.526,14.5,14.5,0,0,0-3.154-2.758.847.847,0,0,0-1.3.261h0c-.554,1.253-.99,2.309-1.313,3.157-.228.6-.434,1.119-.612,1.56a4.985,4.985,0,0,0-.34,1.343,2.774,2.774,0,0,0,.928,2.49,4.707,4.707,0,0,0,1.919.961,3.047,3.047,0,0,0,2.393-.2A4.236,4.236,0,0,0,1373.737,794.625Z" transform="translate(-1252.017 -722.405)" fill="#1dc4bd"/>
  <path id="Path_1069" data-name="Path 1069" d="M1485.76,626.234c-.253-2.45-.52-4.9-.818-7.344-.3-2.411-.608-4.839-.963-7.232-.3-2.051-.63-4.131-1.041-6.168a3.874,3.874,0,0,0-2.193-2.594,13.312,13.312,0,0,0-4.446-1.369,14.582,14.582,0,0,0-3.637-.054q-.7.076-1.261.178a2.931,2.931,0,0,0-2.089,1.473l-.021.038a2.964,2.964,0,0,0,.583,3.472c1.556,1.592,2.413,3.867,3.255,5.873a20.419,20.419,0,0,0,4.632,7.074c1.433,1.379,3.2.168,4.188-.493l.029-.019c.666-.424,1.393.492.788.992l-.709.588c-2.658,2.339-6.187.117-8.2-2.014a22.656,22.656,0,0,1-3.72-4.815.013.013,0,0,0-.023,0,28.583,28.583,0,0,0-1.227,5.423,6.54,6.54,0,0,0,.384,3.73,4.054,4.054,0,0,0,2.889,2.206c2.024.282,3.035.429,5.057.736a.013.013,0,0,1,.011.011c.147,1.386.219,2.079.361,3.464a9.03,9.03,0,0,0,.33,1.538,3.711,3.711,0,0,0,2.852,2.25c1.629.432,4.057.673,4.882-1.14a6,6,0,0,0,.385-3.111Q1485.9,627.582,1485.76,626.234Z" transform="translate(-1343.329 -556.391)" fill="#1dc4bd"/>
  <g id="Group_255" data-name="Group 255" transform="translate(91.577 41.701)">
    <path id="Path_1070" data-name="Path 1070" d="M1266.138,638.279c1.375.089,2.642.264,3.916.386a16.65,16.65,0,0,0-2.327-.351A12.145,12.145,0,0,0,1266.138,638.279Z" transform="translate(-1253.115 -631.18)" fill="#1dc4bd"/>
    <path id="Path_1071" data-name="Path 1071" d="M1163.126,588.77a7.266,7.266,0,0,0-1.573-2.756,18.719,18.719,0,0,0-6.9-4.4c-1.04-.421-1.561-.63-2.606-1.045a7.057,7.057,0,0,1-1.907-1,1.415,1.415,0,0,1-.573-1.244,1.778,1.778,0,0,1,1.179-1.461,4.847,4.847,0,0,1,1.82-.384,12.134,12.134,0,0,1,1.589.035c1.146.093,2.273.338,3.419.435a15.915,15.915,0,0,0,3.091,0,5.1,5.1,0,0,0,2.171-.561,1.885,1.885,0,0,0,.671-2.22,5.076,5.076,0,0,0-2.456-2.867,12.569,12.569,0,0,0-3.2-1.2,26.451,26.451,0,0,0-4.114-.64c-3.18-.261-6.941.134-9.65,1.841a8.528,8.528,0,0,0-3.352,4.338,9.718,9.718,0,0,0-.36,2.132,8.277,8.277,0,0,0,.547,3.682,7.776,7.776,0,0,0,1.894,2.678,12.747,12.747,0,0,0,2.986,2.02q1.745.872,3.877,1.763l.039.016c.8.328,1.2.494,1.993.826a10.1,10.1,0,0,1,2.146,1.181,1.669,1.669,0,0,1,.664,1.555,2.122,2.122,0,0,1-1.126,1.626,5.938,5.938,0,0,1-3.44.466,12.114,12.114,0,0,1-4.286-1.084,15.2,15.2,0,0,1-2.476-1.439,1.507,1.507,0,0,0-1.786-.007q-.1.077-.2.159a7.3,7.3,0,0,0-.7.666,3.65,3.65,0,0,0-.958,2.379c0,.046,0,.091,0,.137a3.881,3.881,0,0,0,.682,2.325,5.193,5.193,0,0,0,.444.56,6.789,6.789,0,0,0,1.69,1.323c.09.051.183.1.276.15a13.806,13.806,0,0,0,2.992,1.131,24.513,24.513,0,0,0,4.1.657c3.215.273,6.965.054,9.738-1.734a8.676,8.676,0,0,0,3.954-6.365A9.682,9.682,0,0,0,1163.126,588.77Z" transform="translate(-1139.543 -569.38)" fill="#1dc4bd"/>
  </g>
  <path id="Path_1072" data-name="Path 1072" d="M628.268,585.086a2.082,2.082,0,0,0-2.742-.851q-.605.293-1.236.558a10,10,0,0,1-3.392.657,8.381,8.381,0,0,1-6.128-2.024A9.435,9.435,0,0,1,612.146,577a9.639,9.639,0,0,1,1.7-6.619,7.8,7.8,0,0,1,5.9-2.58,9.662,9.662,0,0,1,3.518.462q.782.277,1.518.623a2.253,2.253,0,0,0,2.775-.69l.069-.1a3.707,3.707,0,0,0,.618-2.218,4.27,4.27,0,0,0-2.69-3.709,14.663,14.663,0,0,0-7.432-1.213,20.829,20.829,0,0,0-6.268,1.342,14.134,14.134,0,0,0-4.938,3.352,15.177,15.177,0,0,0-3.065,5.157,16.2,16.2,0,0,0-.713,6.81,17.429,17.429,0,0,0,1.811,6.958,13.656,13.656,0,0,0,8.922,7.19,21.642,21.642,0,0,0,6.13.632,13.026,13.026,0,0,0,6.648-1.62,4.021,4.021,0,0,0,2.134-3.454,5.018,5.018,0,0,0-.512-2.218Z" transform="translate(-566.679 -520.09)" fill="#1dc4bd"/>
  <path id="Path_1073" data-name="Path 1073" d="M882.493,592.018a3.9,3.9,0,0,0,.76-3.764,11.513,11.513,0,0,0-5.989-7.282,8,8,0,0,0-3.573-1.051,9.731,9.731,0,0,0-3.849.643c-.959.385-1.815.958-2.79,1.326a24.233,24.233,0,0,1-3.262.944,7.429,7.429,0,0,0-2.746.971,5.756,5.756,0,0,1-1.389.963.486.486,0,0,1-.506-.056.5.5,0,0,1-.049-.461,4.083,4.083,0,0,1,2.386-3.1c1.784-.933,3.984-1.258,5.621-2.466a6.672,6.672,0,0,0,2.039-2.768,4.009,4.009,0,0,0,.464-1.578c-.03-.5-.5-.714-.985-.686h-.006c-1.1.065-2.669,1.171-3.552.069a5.547,5.547,0,0,1-.493-.91c-.152-.285-.531-.356-.631-.68a1.514,1.514,0,0,1,.175-1.018,9.668,9.668,0,0,0,.844-2.168,2.706,2.706,0,0,1,1.614-2.1c-.422-1.128-.634-1.692-1.061-2.819.422-.654,1.352.016,1.821.241,1.344.644,2.689,1.281,4.019,1.942.83.413,1.632.873,2.472,1.265a8.292,8.292,0,0,0,2.43.844c.913.11,1.828-.472,1.537-1.415-.194-.628-.383-1.228-.571-1.791a3.865,3.865,0,0,0-2.493-2.3,13.248,13.248,0,0,0-4.571-.8,14.509,14.509,0,0,0-3.607.4l-.036.009A4.82,4.82,0,0,0,863.1,565.3l-.224.579q-.641,1.666-1.4,3.8t-1.6,4.54q-.839,2.407-1.56,4.693t-1.31,4.255c-.393,1.312-.693,2.414-.908,3.3-.152.622-.291,1.165-.412,1.624a4.986,4.986,0,0,0-.17,1.375,2.775,2.775,0,0,0,1.23,2.355,6.364,6.364,0,0,0,3.662.816,8.434,8.434,0,0,0,1.812-.18l.151-.036a2.156,2.156,0,0,0,1.58-1.548q.237-.916.477-1.869.394-1.565.793-3.034,4.443.022,8.885.132c.319,1.36.477,2.041.791,3.4a9.039,9.039,0,0,0,.518,1.484,2.915,2.915,0,0,0,.793,1.053,3.5,3.5,0,0,0,1.287.629,8.529,8.529,0,0,0,1.95.267,3.859,3.859,0,0,0,2.371-.368A3.748,3.748,0,0,0,882.493,592.018Z" transform="translate(-793.164 -521.066)" fill="#1dc4bd"/>
  <path id="Path_1074" data-name="Path 1074" d="M287.447,657.962c2.413-1.935,5.915-.464,7.872,1.383,1.8,1.7,3.362,5.44,1.2,7.392s-5.912.375-7.728-1.407-3.457-5.159-1.34-7.367Z" transform="translate(-282.629 -606.33)" fill="#1dc4bd"/>
  <path id="Path_1075" data-name="Path 1075" d="M386.692,594.076c-2.791,1.158-2.7,5.071-1.644,7.343,1.07,2.3,4.1,5.057,6.739,3.968,2.684-1.107,2.809-4.889,1.739-7.315-1.028-2.334-4-5.2-6.834-4Z" transform="translate(-370.472 -549.58)" fill="#1dc4bd"/>
  <path id="Path_1076" data-name="Path 1076" d="M499.752,631.361c-2.451.444-3.334,3.156-3.066,5.3.265,2.127,1.935,4.744,4.194,4.514,2.153-.219,3.3-3.216,3.082-5.27-.222-2.1-1.831-4.616-4.209-4.546Z" transform="translate(-471.197 -583.283)" fill="#1dc4bd"/>
  <path id="Path_1077" data-name="Path 1077" d="M278.762,768.65c1.4-1.924,4.444-1.61,6.262-.509,1.8,1.087,3.748,3.564,2.567,5.467s-4.284,1.444-6.175.468c-1.823-.941-3.685-3.312-2.655-5.425Z" transform="translate(-275.467 -705.204)" fill="#1dc4bd"/>
  <g id="Group_257" data-name="Group 257" transform="translate(0 0)">
    <g id="Group_256" data-name="Group 256" transform="translate(0 0)">
      <path id="Path_1078" data-name="Path 1078" d="M280.92,204.82a11.863,11.863,0,0,0-5.536-8.967c-4.13-2.372-9.128-2.355-13.7-1.781a37.481,37.481,0,0,0-5.456,1.149,24.446,24.446,0,0,0-4.694,1.815,5.248,5.248,0,0,0-1.784,1.419,2.512,2.512,0,0,0-.386,2.027l4.811,27.564a7.351,7.351,0,0,0,.776,2.4,3.231,3.231,0,0,0,1.29,1.285,4.2,4.2,0,0,0,1.82.446,12.3,12.3,0,0,0,2.362-.175c.31-.05.917-.2,1.592-.377a3.446,3.446,0,0,0,2.552-3.821l-1.167-7.863c1.682-.25,2.523-.37,4.207-.6a25.864,25.864,0,0,0,6.267-1.742,13.37,13.37,0,0,0,4.3-3.131,11.69,11.69,0,0,0,2.341-4.314A14.477,14.477,0,0,0,280.92,204.82ZM269.1,209.753a6.039,6.039,0,0,1-3.75,1.678c-1.281.18-1.922.273-3.2.463l-1.353-9.108a10.549,10.549,0,0,1,1.306-.342q.643-.124,1.633-.264a6.43,6.43,0,0,1,4.393.63,4.253,4.253,0,0,1,1.89,3.259A4.377,4.377,0,0,1,269.1,209.753Z" transform="translate(-249.307 -190.691)" fill="#ef171b"/>
      <path id="Path_1079" data-name="Path 1079" d="M823.622,171.666a4.38,4.38,0,0,0,1.2-3.29,7.4,7.4,0,0,0-.3-2.387,2.736,2.736,0,0,0-2.59-1.858q-12.892-.3-25.775.091a4.066,4.066,0,0,0-2.839,1.114,4.312,4.312,0,0,0-.964,3.369,7.518,7.518,0,0,0,.474,2.358,2.719,2.719,0,0,0,2.668,1.681q3.759-.133,7.521-.2.2,11.523.408,23.046a7.376,7.376,0,0,0,.394,2.489,3.231,3.231,0,0,0,1.072,1.469,4.17,4.17,0,0,0,1.723.722,16.535,16.535,0,0,0,2.352.191c2.951.115,4.777-2.213,4.738-5.009q.088-11.481.177-22.961,3.445.027,6.89.109A4.025,4.025,0,0,0,823.622,171.666Z" transform="translate(-736.482 -164)" fill="#ef171b"/>
      <path id="Path_1080" data-name="Path 1080" d="M1401.542,215.137c-2.053-2.655-5.093-4.339-8.031-5.854-1.231-.587-1.849-.879-3.088-1.457a8.646,8.646,0,0,1-2.245-1.351,1.717,1.717,0,0,1-.608-1.547,2.154,2.154,0,0,1,1.536-1.685,8.491,8.491,0,0,1,4.174-.174,18.473,18.473,0,0,1,4.9,1.36,18.964,18.964,0,0,1,1.8.906,3.034,3.034,0,0,0,3.666-.424l.019-.019a4.587,4.587,0,0,0,1.18-2.482,4.126,4.126,0,0,0-.482-2.822,6.849,6.849,0,0,0-2.283-2.3,15.369,15.369,0,0,0-3.813-1.709,28.8,28.8,0,0,0-4.981-1.087c-3.974-.491-8.279-.426-11.909,1.549a10.365,10.365,0,0,0-4.508,12.087,9.476,9.476,0,0,0,2.122,3.367,15.649,15.649,0,0,0,3.48,2.646c1.486.853,3.022,1.655,4.566,2.4.96.462,1.439.7,2.395,1.163a12.142,12.142,0,0,1,2.506,1.585,2.025,2.025,0,0,1,.685,1.931,2.579,2.579,0,0,1-1.479,1.885,7.414,7.414,0,0,1-4.179.317,14.883,14.883,0,0,1-5.088-1.608,20.8,20.8,0,0,1-2.37-1.5,2.805,2.805,0,0,0-3.519.136q-.148.133-.294.276a4.438,4.438,0,0,0-1.307,2.82,4.763,4.763,0,0,0,.659,3.025,7.621,7.621,0,0,0,2.44,2.417,16.163,16.163,0,0,0,3.834,1.766,25.935,25.935,0,0,0,4.867,1.076c3.92.474,8.239.633,11.821-1.382a10.845,10.845,0,0,0,5.274-7.391A10.284,10.284,0,0,0,1401.542,215.137Z" transform="translate(-1258.623 -191.123)" fill="#ef171b"/>
      <path id="Path_1081" data-name="Path 1081" d="M1251.08,455.137c-.023,0-.07.012-.07.012a.244.244,0,0,1,.074.006Z" transform="translate(-1147.966 -425.188)" fill="#ef171b"/>
      <path id="Path_1082" data-name="Path 1082" d="M1043.743,406.8q-.99,0-1.976-.036c-.67-.023-1.163-.983-1.491-1.938a1.948,1.948,0,0,0-2.549-1.128c-.97.376-1.959.782-2.165.909-2.216,1.368-2.848,4.422-3.234,6.778a3.431,3.431,0,0,0,.045,1.5c.733,2.447,3.878,3.068,6.2,2.979,2.221-.085,3.8-2.321,4.426-4.225.292-.886.868-2.909,1.257-4.166A.528.528,0,0,0,1043.743,406.8Z" transform="translate(-951.725 -378.923)" fill="#ef171b"/>
      <path id="Path_1083" data-name="Path 1083" d="M1144.173,195.787c-.525-2.935-1.086-5.878-1.665-8.8-.572-2.889-1.175-5.794-1.826-8.657-.559-2.456-1.153-4.939-1.842-7.362a4.745,4.745,0,0,0-2.912-2.929,16.31,16.31,0,0,0-5.538-1.222,18.725,18.725,0,0,0-4.425.3q-.215.042-.42.085a5.336,5.336,0,0,0-3.831,3.018q-.188.431-.4.918c-.163.377-.424,1-.718,1.709a2.343,2.343,0,0,0,2.865,3.014l.04-.009a8.262,8.262,0,0,1,2.084-.18c.5.022,1.493.179,1.493.179s.159-2.187.243-2.359c.143-.293.514-1.162.9-1.218.428-.061.841.482,1.053.762a6.264,6.264,0,0,1,.658,2.316c.015.105.769-.3.826-.351.95-.773,1.366-1.574,2.307-2.385.525-.453.638,1.622.507,2.26-.087.423-.675,1.172-.36,1.523a3.025,3.025,0,0,0,.629.48,4.422,4.422,0,0,1,2.343,2.961c.129.788,1.561,1.769,2.257,2.32a2.3,2.3,0,0,1,.583.691,1.618,1.618,0,0,1-.136,1.936,3.786,3.786,0,0,1-2.841.563,38.619,38.619,0,0,0-4.778-.545,13.378,13.378,0,0,0-3.15.035,7.874,7.874,0,0,0-3.912,1.8c-.71.784-.379,2.314.1,3.137a3.577,3.577,0,0,0,2.724,1.731c.611.062,1.229.128,1.828.214a15.891,15.891,0,0,1,5.735,2.1,16.123,16.123,0,0,1,2.542,1.937c.234.221.934.734.874,1.107-.1.616-.373.521-.564.567a22.324,22.324,0,0,1-2.788-.821.707.707,0,0,0-.877.632,13.051,13.051,0,0,0,1.4,4.962,3.709,3.709,0,0,0,.892,1.32,4.189,4.189,0,0,0,1.507.836,9.209,9.209,0,0,0,2.322.436c2.51.159,5.52-1.982,4.979-4.873C1144.55,198.122,1144.506,197.647,1144.173,195.787Z" transform="translate(-1030.82 -166.505)" fill="#ef171b"/>
      <path id="Path_1084" data-name="Path 1084" d="M566.905,177.4l-.01-.027c-.877-2.373-1.764-4.755-2.751-7.072a4.745,4.745,0,0,0-3.256-2.54,16.3,16.3,0,0,0-5.647-.517,18.753,18.753,0,0,0-4.354.853q-.207.068-.4.137a5.341,5.341,0,0,0-3.426,3.478q-.133.45-.28.959-.6,2.081-1.3,4.74-.734,2.825-1.447,5.657c-.49,1.935-.951,3.889-1.378,5.838-.384,1.755-.759,3.519-1.114,5.282-.328,1.627-.568,2.991-.728,4.081-.113.768-.22,1.439-.315,2.007a6.068,6.068,0,0,0-.051,1.679,3.379,3.379,0,0,0,1.734,2.71,7.621,7.621,0,0,0,4.471.592,10.089,10.089,0,0,0,2.148-.409l.017-.006a3.156,3.156,0,0,0,2-2.683,20.647,20.647,0,0,0,.44-3,6.213,6.213,0,0,1,.3-2.576,5.012,5.012,0,0,1,1.662-1.426,4.055,4.055,0,0,0,1.554-3.982,14.917,14.917,0,0,1,.983-5.74,4.655,4.655,0,0,1-1.025-.071c-3.331-.713-6.531-3.92-6.532-7.479,0-3.519,3.266-7.487,7.02-7.153a12.812,12.812,0,0,0-1.88,3.857,7.326,7.326,0,0,0,1.068,5.059c1.417,2.011,4.02,1.632,6.057,1.164a38.79,38.79,0,0,1,4.415-.518A2.209,2.209,0,0,0,566.905,177.4Z" transform="translate(-510.466 -166.866)" fill="#ef171b"/>
      <path id="Path_1085" data-name="Path 1085" d="M756.516,405.012c-.1-.267-.32-.885-.567-1.563a2.9,2.9,0,0,0-4.141-1.15c-.565.34-.929.627-1.054.713q-1.313.9-2.522,1.9a16.074,16.074,0,0,0-1.514,1.286,2.739,2.739,0,0,0-.535.773,4.079,4.079,0,0,0-.1,2.571c.24,1,.787,3.095,2,3.506a5.6,5.6,0,0,0,1.227,0,1.3,1.3,0,0,1,.956.669c.176.335.005.842.334.826a26.8,26.8,0,0,0,6.12-.677,2.535,2.535,0,0,0,1.793-3.147C757.863,408.809,757.192,406.907,756.516,405.012Z" transform="translate(-694.838 -377.401)" fill="#ef171b"/>
    </g>
  </g>
  <g id="Group_258" data-name="Group 258" transform="translate(14.221 57.986)">
    <path id="Path_1086" data-name="Path 1086" d="M491.99,768.485l-.057.037q.128.488.283,1.089t.351,1.193l1.183-.774q-.47-.428-.93-.829T491.99,768.485Z" transform="translate(-481.196 -764.289)" fill="#1dc4bd"/>
    <path id="Path_1087" data-name="Path 1087" d="M428.413,804.062a2.206,2.206,0,0,0-1.246-1.031,1.655,1.655,0,0,0-1.352.265q-.134.087-.266.187t-.263.213l2.171,3.32q.117-.049.279-.135t.3-.173a2.14,2.14,0,0,0,.534-.485,1.428,1.428,0,0,0,.274-.6,1.632,1.632,0,0,0-.035-.72A2.84,2.84,0,0,0,428.413,804.062Z" transform="translate(-421.405 -795.238)" fill="#1dc4bd"/>
    <path id="Path_1088" data-name="Path 1088" d="M406.686,732.816c-2.923-4.131-10.514-6.759-15.112-3.96-4.5,2.986-5,10.433-2.589,14.8,1.191,2.153,3.892,3.653,5.748,1.4,1.39-1.686,1.879-4.323,3.908-5.48,2.108-1.2,4.566-.525,6.766-1.035C408.228,737.888,408.211,734.97,406.686,732.816Zm-9.812,5.413a3.267,3.267,0,0,1-.639,1.242,5.065,5.065,0,0,1-1.182,1.045q-.162.106-.378.234t-.459.246q-.243.118-.5.222a2.685,2.685,0,0,1-.493.152.848.848,0,0,1-.98-.353l-2.914-4.455a.5.5,0,0,1-.093-.382.939.939,0,0,1,.185-.373,4.789,4.789,0,0,1,.753-.744q.43-.342.792-.579a5.613,5.613,0,0,1,1.468-.7,3.319,3.319,0,0,1,1.4-.122,3,3,0,0,1,1.293.509,4.747,4.747,0,0,1,1.766,2.679A3.068,3.068,0,0,1,396.874,738.229Zm6.655-3.474a2.12,2.12,0,0,1-.373.381,2,2,0,0,1-.411.214.824.824,0,0,1-.332.054.671.671,0,0,1-.293-.094,2.029,2.029,0,0,1-.3-.214l-.6-.546-1.727,1.129q.111.336.234.691.059.17.115.335a.615.615,0,0,1-.158.644,2.627,2.627,0,0,1-.287.246,1.493,1.493,0,0,1-.83.3.641.641,0,0,1-.536-.31,1.153,1.153,0,0,1-.137-.292q-.049-.159-.12-.371-.1-.3-.232-.761t-.277-1q-.147-.537-.29-1.111t-.272-1.082q-.128-.509-.221-.911l-.026-.112a1.121,1.121,0,0,1,.255-1l.005-.006a3.126,3.126,0,0,1,.607-.519,2.856,2.856,0,0,1,.935-.414.88.88,0,0,1,.756.125q.5.384,1.127.911t1.29,1.1q.659.57,1.3,1.128l.731.641A.61.61,0,0,1,403.529,734.756Z" transform="translate(-387.555 -727.695)" fill="#1dc4bd"/>
  </g>
</svg>
