<svg xmlns="http://www.w3.org/2000/svg" xmlns:xlink="http://www.w3.org/1999/xlink" width="198.746" height="126.75" viewBox="0 0 198.746 126.75">
  <defs>
    <filter id="Path_1089" x="0" y="0" width="198.746" height="126.75" filterUnits="userSpaceOnUse">
      <feOffset input="SourceAlpha"/>
      <feGaussianBlur stdDeviation="3" result="blur"/>
      <feFlood flood-opacity="0.161"/>
      <feComposite operator="in" in2="blur"/>
      <feComposite in="SourceGraphic"/>
    </filter>
  </defs>
  <g id="Logo_Rodape" data-name="Logo Rodape" transform="translate(-527.799 -2492.736)">
    <g transform="matrix(1, 0, 0, 1, 527.8, 2492.74)" filter="url(#Path_1089)">
      <path id="Path_1089-2" data-name="Path 1089" d="M-455.967,4162.981c-45.534-33.53-182.128-30.562-158.819,7.9s-33.992,55.9,66.721,74.47S-410.434,4196.511-455.967,4162.981Z" transform="translate(626.44 -4130.78)" fill="#fff"/>
    </g>
    <g id="Group_318" data-name="Group 318" transform="translate(567.511 2525.855)">
      <path id="Path_1068" data-name="Path 1068" d="M1372.318,792.9a6.544,6.544,0,0,0,.579-1.356,2.927,2.927,0,0,0-.584-2.784,11.45,11.45,0,0,0-2.49-2.178.669.669,0,0,0-1.025.206h0c-.438.989-.781,1.823-1.037,2.493-.18.473-.343.884-.484,1.231a3.939,3.939,0,0,0-.269,1.06,2.191,2.191,0,0,0,.733,1.966,3.717,3.717,0,0,0,1.515.759,2.406,2.406,0,0,0,1.889-.162A3.346,3.346,0,0,0,1372.318,792.9Z" transform="translate(-1276.207 -735.876)" fill="#1dc4bd"/>
      <path id="Path_1069" data-name="Path 1069" d="M1482.186,621.006c-.2-1.934-.41-3.871-.646-5.8-.233-1.9-.48-3.821-.76-5.711-.24-1.62-.5-3.262-.822-4.87a3.059,3.059,0,0,0-1.732-2.048,10.511,10.511,0,0,0-3.511-1.081,11.51,11.51,0,0,0-2.872-.043q-.549.06-1,.141a2.314,2.314,0,0,0-1.65,1.163l-.016.03a2.341,2.341,0,0,0,.46,2.742,14.494,14.494,0,0,1,2.57,4.638,16.122,16.122,0,0,0,3.658,5.586c1.132,1.089,2.523.133,3.307-.389l.023-.015c.526-.335,1.1.388.623.783l-.56.464c-2.1,1.847-4.885.092-6.474-1.59a17.887,17.887,0,0,1-2.937-3.8.01.01,0,0,0-.019,0,22.578,22.578,0,0,0-.969,4.282,5.165,5.165,0,0,0,.3,2.945,3.2,3.2,0,0,0,2.281,1.742c1.6.223,2.4.339,3.993.581a.01.01,0,0,1,.009.009c.116,1.094.173,1.641.285,2.736a7.136,7.136,0,0,0,.26,1.214,2.931,2.931,0,0,0,2.252,1.777c1.287.341,3.2.532,3.855-.9a4.742,4.742,0,0,0,.3-2.457Q1482.294,622.07,1482.186,621.006Z" transform="translate(-1369.722 -565.857)" fill="#1dc4bd"/>
      <g id="Group_255" data-name="Group 255" transform="translate(72.31 32.927)">
        <path id="Path_1070" data-name="Path 1070" d="M1266.138,638.276c1.085.071,2.086.209,3.092.305a13.137,13.137,0,0,0-1.837-.277A9.575,9.575,0,0,0,1266.138,638.276Z" transform="translate(-1255.855 -632.671)" fill="#1dc4bd"/>
        <path id="Path_1071" data-name="Path 1071" d="M1158.164,584.69a5.738,5.738,0,0,0-1.242-2.176,14.781,14.781,0,0,0-5.449-3.472c-.821-.333-1.233-.5-2.058-.825a5.571,5.571,0,0,1-1.506-.792,1.117,1.117,0,0,1-.452-.983,1.4,1.4,0,0,1,.931-1.154,3.827,3.827,0,0,1,1.437-.3,9.584,9.584,0,0,1,1.255.028c.905.074,1.795.267,2.7.343a12.57,12.57,0,0,0,2.441,0,4.028,4.028,0,0,0,1.714-.443,1.489,1.489,0,0,0,.53-1.753,4.008,4.008,0,0,0-1.939-2.264,9.924,9.924,0,0,0-2.524-.951,20.88,20.88,0,0,0-3.249-.505,12.866,12.866,0,0,0-7.62,1.454,6.734,6.734,0,0,0-2.647,3.425A7.667,7.667,0,0,0,1140.2,576a6.536,6.536,0,0,0,.432,2.907,6.142,6.142,0,0,0,1.5,2.115,10.067,10.067,0,0,0,2.358,1.6q1.378.689,3.061,1.392l.03.013c.63.259.945.39,1.573.652a7.976,7.976,0,0,1,1.695.932,1.317,1.317,0,0,1,.524,1.228,1.675,1.675,0,0,1-.889,1.284,4.688,4.688,0,0,1-2.716.368,9.566,9.566,0,0,1-3.384-.856,12,12,0,0,1-1.955-1.136,1.19,1.19,0,0,0-1.411-.006q-.08.061-.158.125a5.783,5.783,0,0,0-.555.526,2.882,2.882,0,0,0-.756,1.878c0,.036,0,.072,0,.108a3.065,3.065,0,0,0,.538,1.836,4.116,4.116,0,0,0,.35.442,5.359,5.359,0,0,0,1.335,1.045c.071.041.144.08.218.119a10.9,10.9,0,0,0,2.362.893,19.359,19.359,0,0,0,3.235.519c2.539.216,5.5.042,7.689-1.369a6.851,6.851,0,0,0,3.122-5.026A7.645,7.645,0,0,0,1158.164,584.69Z" transform="translate(-1139.543 -569.38)" fill="#1dc4bd"/>
      </g>
      <path id="Path_1072" data-name="Path 1072" d="M622.967,580a1.644,1.644,0,0,0-2.165-.672q-.478.231-.976.44a7.9,7.9,0,0,1-2.679.519,6.618,6.618,0,0,1-4.839-1.6,7.45,7.45,0,0,1-2.072-5.075,7.611,7.611,0,0,1,1.345-5.227,6.161,6.161,0,0,1,4.661-2.037,7.629,7.629,0,0,1,2.778.365q.618.219,1.2.492a1.779,1.779,0,0,0,2.191-.545l.054-.079a2.927,2.927,0,0,0,.488-1.751,3.372,3.372,0,0,0-2.124-2.929,11.579,11.579,0,0,0-5.868-.958,16.447,16.447,0,0,0-4.949,1.06,11.16,11.16,0,0,0-3.9,2.647,11.984,11.984,0,0,0-2.421,4.072,12.789,12.789,0,0,0-.563,5.377,13.762,13.762,0,0,0,1.43,5.494,10.783,10.783,0,0,0,7.045,5.677,17.087,17.087,0,0,0,4.84.5,10.286,10.286,0,0,0,5.249-1.279,3.175,3.175,0,0,0,1.685-2.727,3.963,3.963,0,0,0-.4-1.752Z" transform="translate(-574.336 -528.68)" fill="#1dc4bd"/>
      <path id="Path_1073" data-name="Path 1073" d="M876.819,585.7a3.079,3.079,0,0,0,.6-2.972,9.091,9.091,0,0,0-4.729-5.75,6.318,6.318,0,0,0-2.821-.83,7.684,7.684,0,0,0-3.039.508c-.757.3-1.433.756-2.2,1.047a19.142,19.142,0,0,1-2.576.745,5.867,5.867,0,0,0-2.168.766,4.547,4.547,0,0,1-1.1.76.384.384,0,0,1-.4-.044.4.4,0,0,1-.039-.364,3.224,3.224,0,0,1,1.884-2.445c1.409-.737,3.146-.993,4.438-1.947a5.269,5.269,0,0,0,1.61-2.185,3.166,3.166,0,0,0,.367-1.246c-.024-.395-.4-.564-.778-.542h0c-.867.051-2.107.925-2.8.054a4.388,4.388,0,0,1-.389-.719c-.12-.225-.419-.281-.5-.537a1.2,1.2,0,0,1,.138-.8,7.635,7.635,0,0,0,.667-1.712,2.137,2.137,0,0,1,1.275-1.661c-.333-.891-.5-1.336-.838-2.226.333-.517,1.068.013,1.438.19,1.061.509,2.124,1.012,3.173,1.533.656.326,1.289.689,1.952,1a6.545,6.545,0,0,0,1.919.667c.721.087,1.443-.373,1.213-1.117-.153-.5-.3-.97-.451-1.414a3.052,3.052,0,0,0-1.968-1.816,10.461,10.461,0,0,0-3.609-.634,11.459,11.459,0,0,0-2.848.316l-.028.007a3.805,3.805,0,0,0-2.7,2.273l-.177.457q-.506,1.316-1.1,3t-1.26,3.585q-.662,1.9-1.232,3.706t-1.034,3.359c-.31,1.036-.547,1.906-.717,2.6-.12.491-.229.92-.326,1.282a3.937,3.937,0,0,0-.134,1.086,2.191,2.191,0,0,0,.971,1.859,5.025,5.025,0,0,0,2.891.644,6.658,6.658,0,0,0,1.43-.142l.12-.029a1.7,1.7,0,0,0,1.248-1.223q.187-.723.377-1.476.311-1.236.626-2.4,3.508.018,7.015.1c.252,1.074.377,1.611.625,2.686a7.137,7.137,0,0,0,.409,1.172,2.3,2.3,0,0,0,.626.831,2.759,2.759,0,0,0,1.016.5,6.733,6.733,0,0,0,1.54.211,3.048,3.048,0,0,0,1.872-.291A2.96,2.96,0,0,0,876.819,585.7Z" transform="translate(-806.284 -529.68)" fill="#1dc4bd"/>
      <path id="Path_1074" data-name="Path 1074" d="M287.237,657.77c1.905-1.528,4.671-.367,6.216,1.092,1.421,1.341,2.655,4.3.944,5.837s-4.668.3-6.1-1.111-2.729-4.073-1.058-5.817Z" transform="translate(-283.433 -617.001)" fill="#1dc4bd"/>
      <path id="Path_1075" data-name="Path 1075" d="M386.2,594.016c-2.2.914-2.133,4-1.3,5.8.845,1.816,3.237,3.993,5.321,3.133,2.12-.875,2.218-3.86,1.373-5.776-.812-1.843-3.158-4.106-5.4-3.155Z" transform="translate(-373.395 -558.881)" fill="#1dc4bd"/>
      <path id="Path_1076" data-name="Path 1076" d="M499.1,631.36c-1.935.35-2.632,2.492-2.421,4.186s1.528,3.746,3.311,3.565c1.7-.173,2.6-2.539,2.433-4.161-.175-1.661-1.445-3.645-3.324-3.589Z" transform="translate(-476.55 -593.398)" fill="#1dc4bd"/>
      <path id="Path_1077" data-name="Path 1077" d="M278.7,768.358c1.1-1.519,3.509-1.272,4.945-.4,1.417.859,2.959,2.814,2.027,4.317s-3.383,1.14-4.876.369c-1.439-.743-2.91-2.615-2.1-4.284Z" transform="translate(-276.098 -718.26)" fill="#1dc4bd"/>
      <g id="Group_257" data-name="Group 257" transform="translate(0 0)">
        <g id="Group_256" data-name="Group 256" transform="translate(0 0)">
          <path id="Path_1078" data-name="Path 1078" d="M274.269,202.491a9.367,9.367,0,0,0-4.371-7.081c-3.261-1.873-7.208-1.859-10.817-1.407a29.6,29.6,0,0,0-4.308.907,19.3,19.3,0,0,0-3.707,1.433,4.144,4.144,0,0,0-1.409,1.12,1.983,1.983,0,0,0-.3,1.6l3.8,21.764a5.8,5.8,0,0,0,.612,1.893,2.551,2.551,0,0,0,1.018,1.014,3.315,3.315,0,0,0,1.437.352,9.71,9.71,0,0,0,1.865-.139c.244-.039.724-.157,1.257-.3a2.721,2.721,0,0,0,2.015-3.017l-.921-6.208c1.328-.2,1.992-.292,3.322-.475a20.422,20.422,0,0,0,4.948-1.376A10.557,10.557,0,0,0,272.1,210.1a9.231,9.231,0,0,0,1.849-3.406A11.432,11.432,0,0,0,274.269,202.491Zm-9.336,3.9a4.768,4.768,0,0,1-2.961,1.325c-1.012.142-1.517.215-2.528.366l-1.068-7.192a8.332,8.332,0,0,1,1.031-.27q.508-.1,1.289-.208a5.077,5.077,0,0,1,3.469.5,3.358,3.358,0,0,1,1.492,2.574A3.456,3.456,0,0,1,264.933,206.387Z" transform="translate(-249.307 -191.335)" fill="#ef171b"/>
          <path id="Path_1079" data-name="Path 1079" d="M817.041,170.053a3.459,3.459,0,0,0,.946-2.6,5.845,5.845,0,0,0-.237-1.885,2.16,2.16,0,0,0-2.045-1.467q-10.18-.236-20.352.072a3.211,3.211,0,0,0-2.242.88,3.4,3.4,0,0,0-.761,2.66,5.935,5.935,0,0,0,.374,1.862,2.147,2.147,0,0,0,2.107,1.328q2.968-.1,5.939-.157.161,9.1.322,18.2a5.824,5.824,0,0,0,.311,1.965,2.551,2.551,0,0,0,.846,1.16,3.292,3.292,0,0,0,1.36.57,13.057,13.057,0,0,0,1.857.151,3.616,3.616,0,0,0,3.741-3.956q.07-9.065.139-18.131,2.72.021,5.44.086A3.178,3.178,0,0,0,817.041,170.053Z" transform="translate(-748.235 -164)" fill="#ef171b"/>
          <path id="Path_1080" data-name="Path 1080" d="M1395.822,210.739c-1.621-2.1-4.021-3.426-6.341-4.622-.972-.464-1.46-.694-2.438-1.15a6.828,6.828,0,0,1-1.773-1.067,1.355,1.355,0,0,1-.48-1.222,1.7,1.7,0,0,1,1.213-1.331,6.7,6.7,0,0,1,3.3-.138,14.585,14.585,0,0,1,3.87,1.074,14.977,14.977,0,0,1,1.419.715,2.4,2.4,0,0,0,2.895-.335l.015-.015a3.622,3.622,0,0,0,.932-1.96,3.258,3.258,0,0,0-.38-2.229,5.409,5.409,0,0,0-1.8-1.818,12.136,12.136,0,0,0-3.011-1.35,22.741,22.741,0,0,0-3.933-.858c-3.138-.388-6.537-.336-9.4,1.223a8.184,8.184,0,0,0-3.559,9.544,7.482,7.482,0,0,0,1.675,2.658,12.354,12.354,0,0,0,2.748,2.089c1.174.673,2.386,1.307,3.605,1.9.758.365,1.136.549,1.891.919a9.588,9.588,0,0,1,1.978,1.252,1.6,1.6,0,0,1,.541,1.525,2.036,2.036,0,0,1-1.168,1.489,5.854,5.854,0,0,1-3.3.25,11.752,11.752,0,0,1-4.018-1.27,16.424,16.424,0,0,1-1.871-1.186,2.215,2.215,0,0,0-2.779.107q-.117.1-.233.218a3.5,3.5,0,0,0-1.032,2.227,3.761,3.761,0,0,0,.521,2.389,6.018,6.018,0,0,0,1.926,1.909,12.763,12.763,0,0,0,3.028,1.395,20.479,20.479,0,0,0,3.843.85c3.1.374,6.506.5,9.334-1.092a8.563,8.563,0,0,0,4.164-5.836A8.121,8.121,0,0,0,1395.822,210.739Z" transform="translate(-1282.972 -191.778)" fill="#ef171b"/>
          <path id="Path_1081" data-name="Path 1081" d="M1251.065,455.137c-.018,0-.056.01-.056.01a.192.192,0,0,1,.058,0Z" transform="translate(-1169.645 -431.489)" fill="#ef171b"/>
          <path id="Path_1082" data-name="Path 1082" d="M1041.328,406.122q-.782,0-1.56-.028c-.529-.018-.918-.776-1.177-1.53a1.538,1.538,0,0,0-2.013-.891c-.766.3-1.547.617-1.71.718-1.75,1.08-2.249,3.491-2.554,5.352a2.71,2.71,0,0,0,.036,1.187c.579,1.932,3.062,2.423,4.9,2.352,1.754-.067,3-1.833,3.5-3.336.231-.7.686-2.3.992-3.289A.417.417,0,0,0,1041.328,406.122Z" transform="translate(-968.67 -384.108)" fill="#ef171b"/>
          <path id="Path_1083" data-name="Path 1083" d="M1139.178,189.687c-.415-2.317-.857-4.641-1.314-6.951-.452-2.281-.928-4.575-1.442-6.836-.441-1.94-.911-3.9-1.454-5.813a3.747,3.747,0,0,0-2.3-2.313,12.878,12.878,0,0,0-4.373-.965,14.786,14.786,0,0,0-3.494.236l-.332.067a4.214,4.214,0,0,0-3.025,2.383q-.149.34-.315.725c-.129.3-.335.788-.567,1.349a1.85,1.85,0,0,0,2.262,2.38l.031-.007a6.525,6.525,0,0,1,1.646-.142c.394.017,1.179.141,1.179.141s.126-1.727.192-1.862c.113-.231.406-.918.713-.961.338-.048.664.381.832.6a4.944,4.944,0,0,1,.52,1.829c.012.083.607-.24.652-.277.75-.61,1.078-1.243,1.822-1.884.415-.357.5,1.28.4,1.784-.069.334-.533.926-.284,1.2a2.387,2.387,0,0,0,.5.379,3.491,3.491,0,0,1,1.85,2.338c.1.622,1.233,1.4,1.782,1.832a1.818,1.818,0,0,1,.46.546,1.278,1.278,0,0,1-.107,1.529,2.99,2.99,0,0,1-2.243.445,30.491,30.491,0,0,0-3.773-.43,10.563,10.563,0,0,0-2.487.028,6.217,6.217,0,0,0-3.089,1.422,2.361,2.361,0,0,0,.078,2.477,2.825,2.825,0,0,0,2.151,1.367c.483.049.971.1,1.443.169a12.547,12.547,0,0,1,4.528,1.658,12.724,12.724,0,0,1,2.007,1.53c.185.174.737.58.69.874-.078.486-.295.411-.445.447a17.628,17.628,0,0,1-2.2-.648.558.558,0,0,0-.693.5,10.307,10.307,0,0,0,1.109,3.918,2.93,2.93,0,0,0,.7,1.042,3.308,3.308,0,0,0,1.19.66,7.273,7.273,0,0,0,1.833.344c1.982.126,4.359-1.565,3.932-3.847C1139.476,191.53,1139.441,191.155,1139.178,189.687Z" transform="translate(-1049.674 -166.565)" fill="#ef171b"/>
          <path id="Path_1084" data-name="Path 1084" d="M561.331,175.254l-.008-.021c-.693-1.874-1.393-3.754-2.172-5.584a3.746,3.746,0,0,0-2.571-2.005,12.874,12.874,0,0,0-4.459-.408,14.808,14.808,0,0,0-3.438.674l-.319.108a4.217,4.217,0,0,0-2.705,2.747q-.1.356-.221.757-.477,1.643-1.023,3.743-.579,2.231-1.143,4.467c-.387,1.528-.751,3.07-1.088,4.61-.3,1.386-.6,2.779-.879,4.17-.259,1.285-.448,2.362-.575,3.222-.089.607-.173,1.136-.249,1.584a4.791,4.791,0,0,0-.041,1.326,2.668,2.668,0,0,0,1.369,2.14,6.017,6.017,0,0,0,3.53.467,7.966,7.966,0,0,0,1.7-.323l.014,0a2.492,2.492,0,0,0,1.576-2.118,16.3,16.3,0,0,0,.347-2.371,4.906,4.906,0,0,1,.24-2.034,3.958,3.958,0,0,1,1.313-1.126,3.2,3.2,0,0,0,1.227-3.144,11.778,11.778,0,0,1,.777-4.533,3.676,3.676,0,0,1-.809-.056c-2.63-.563-5.157-3.1-5.158-5.906,0-2.779,2.579-5.912,5.543-5.648a10.116,10.116,0,0,0-1.485,3.046,5.785,5.785,0,0,0,.844,3.995c1.119,1.588,3.174,1.289,4.783.919a30.628,30.628,0,0,1,3.486-.409A1.744,1.744,0,0,0,561.331,175.254Z" transform="translate(-516.767 -166.935)" fill="#ef171b"/>
          <path id="Path_1085" data-name="Path 1085" d="M754.288,404.351c-.075-.211-.252-.7-.448-1.234a2.288,2.288,0,0,0-3.27-.908c-.446.268-.734.5-.832.563q-1.036.711-1.992,1.5a12.69,12.69,0,0,0-1.2,1.016,2.162,2.162,0,0,0-.422.61,3.221,3.221,0,0,0-.08,2.03c.19.79.622,2.444,1.583,2.769a4.425,4.425,0,0,0,.969,0,1.03,1.03,0,0,1,.754.528c.139.264,0,.665.264.652a21.16,21.16,0,0,0,4.832-.535,2,2,0,0,0,1.415-2.485C755.351,407.35,754.821,405.847,754.288,404.351Z" transform="translate(-705.586 -382.549)" fill="#ef171b"/>
        </g>
      </g>
      <g id="Group_258" data-name="Group 258" transform="translate(11.229 45.786)">
        <path id="Path_1086" data-name="Path 1086" d="M491.978,768.485l-.045.03q.1.385.223.859t.277.942l.934-.611q-.371-.338-.734-.654T491.978,768.485Z" transform="translate(-483.455 -765.172)" fill="#1dc4bd"/>
        <path id="Path_1087" data-name="Path 1087" d="M427.755,803.835a1.742,1.742,0,0,0-.984-.814,1.307,1.307,0,0,0-1.068.209q-.106.069-.21.148t-.207.168L427,806.168q.093-.039.221-.107t.233-.136a1.69,1.69,0,0,0,.422-.383,1.128,1.128,0,0,0,.216-.475,1.289,1.289,0,0,0-.027-.568A2.242,2.242,0,0,0,427.755,803.835Z" transform="translate(-422.221 -796.868)" fill="#1dc4bd"/>
        <path id="Path_1088" data-name="Path 1088" d="M402.661,731.739c-2.308-3.262-8.3-5.337-11.932-3.127-3.553,2.358-3.951,8.238-2.045,11.685.94,1.7,3.073,2.884,4.539,1.107,1.1-1.331,1.484-3.413,3.086-4.327,1.665-.95,3.605-.415,5.343-.817C403.879,735.743,403.865,733.44,402.661,731.739Zm-7.748,4.274a2.58,2.58,0,0,1-.5.98,4,4,0,0,1-.933.825q-.128.084-.3.185t-.362.194q-.192.093-.391.175a2.123,2.123,0,0,1-.389.12.67.67,0,0,1-.774-.279l-2.3-3.518a.4.4,0,0,1-.074-.3.741.741,0,0,1,.146-.295,3.779,3.779,0,0,1,.594-.588q.339-.27.626-.458a4.432,4.432,0,0,1,1.159-.554,2.62,2.62,0,0,1,1.109-.1,2.372,2.372,0,0,1,1.021.4,3.749,3.749,0,0,1,1.394,2.116A2.423,2.423,0,0,1,394.913,736.013Zm5.255-2.743a1.674,1.674,0,0,1-.295.3,1.575,1.575,0,0,1-.325.169.651.651,0,0,1-.263.043.53.53,0,0,1-.231-.075,1.6,1.6,0,0,1-.234-.169l-.476-.431-1.363.892q.087.265.185.546.046.134.091.264a.486.486,0,0,1-.125.508,2.074,2.074,0,0,1-.226.194,1.179,1.179,0,0,1-.655.24.506.506,0,0,1-.423-.245.909.909,0,0,1-.108-.231q-.039-.125-.095-.293-.08-.238-.183-.6t-.219-.787q-.116-.424-.229-.877t-.215-.854q-.1-.4-.174-.719l-.02-.088a.885.885,0,0,1,.2-.792l0,0a2.467,2.467,0,0,1,.479-.41,2.254,2.254,0,0,1,.738-.327.7.7,0,0,1,.6.1q.392.3.89.719t1.018.867q.52.45,1.023.89l.577.506A.482.482,0,0,1,400.168,733.27Z" transform="translate(-387.555 -727.695)" fill="#1dc4bd"/>
      </g>
    </g>
  </g>
</svg>
